<svg width="16" height="13" viewBox="0 0 16 13" fill="none" xmlns="http://www.w3.org/2000/svg">
<path d="M0.476918 12.5V9.04829C0.476918 8.06818 0.668679 7.06676 1.0522 6.04403C1.43572 5.02131 1.94176 4.05717 2.57031 3.15163C3.19886 2.24609 3.88068 1.4897 4.61577 0.882457L7.62003 2.65625C7.02344 3.59375 6.53338 4.57386 6.14986 5.59659C5.77699 6.61932 5.59055 7.75923 5.59055 9.01633V12.5H0.476918ZM8.54688 12.5V9.04829C8.54688 8.06818 8.73864 7.06676 9.12216 6.04403C9.50568 5.02131 10.0117 4.05717 10.6403 3.15163C11.2688 2.24609 11.9506 1.4897 12.6857 0.882457L15.69 2.65625C15.0934 3.59375 14.6033 4.57386 14.2198 5.59659C13.8469 6.61932 13.6605 7.75923 13.6605 9.01633V12.5H8.54688Z" fill="black"/>
</svg>
