<svg width="16" height="13" viewBox="0 0 16 13" fill="none" xmlns="http://www.w3.org/2000/svg">
<path d="M15.5231 0.5V3.95171C15.5231 4.93182 15.3313 5.93324 14.9478 6.95597C14.5643 7.97869 14.0582 8.94283 13.4297 9.84837C12.8011 10.7539 12.1193 11.5103 11.3842 12.1175L8.37997 10.3437C8.97656 9.40625 9.46662 8.42614 9.85014 7.40341C10.223 6.38068 10.4094 5.24077 10.4094 3.98367V0.5L15.5231 0.5ZM7.45313 0.5V3.95171C7.45313 4.93182 7.26136 5.93324 6.87784 6.95597C6.49432 7.97869 5.98828 8.94283 5.35973 9.84837C4.73118 10.7539 4.04936 11.5103 3.31428 12.1175L0.310013 10.3437C0.906605 9.40625 1.39666 8.42614 1.78018 7.40341C2.15305 6.38068 2.33949 5.24077 2.33949 3.98367V0.5L7.45313 0.5Z" fill="black" fill-opacity="0.3"/>
</svg>
